<svg width="326" height="183" viewBox="0 0 326 183" fill="none" xmlns="http://www.w3.org/2000/svg">
<g clip-path="url(#clip0_7_185)">
<path d="M164.046 183C252.444 183 324.104 178.103 324.104 172.061C324.104 166.02 252.444 161.123 164.046 161.123C75.6485 161.123 3.9881 166.02 3.9881 172.061C3.9881 178.103 75.6485 183 164.046 183Z" fill="#F2F2F2"/>
<path d="M157.911 52.3128C131.834 52.3128 113.11 69.5843 113.11 109.884C113.11 155.558 131.834 167.648 157.911 167.648C183.989 167.648 203.828 154.406 203.828 109.884C203.828 62.2919 183.989 52.3128 157.911 52.3128ZM158.083 152.487C140.021 152.487 130.584 141.548 130.584 109.914C130.584 82.0011 140.407 67.2814 158.469 67.2814C176.531 67.2814 186.354 76.9502 186.354 109.914C186.354 140.751 176.145 152.487 158.083 152.487Z" fill="#2F2E41"/>
<path d="M97.4947 135.791H86.7126V103.015C86.7126 101.274 86.0427 99.6045 84.8502 98.3735C83.6577 97.1425 82.0404 96.4509 80.354 96.4509H77.8276C76.9925 96.4509 76.1657 96.6207 75.3942 96.9506C74.6228 97.2805 73.9218 97.764 73.3314 98.3735C72.7409 98.983 72.2725 99.7067 71.953 100.503C71.6334 101.299 71.469 102.153 71.469 103.015V135.791H41.0564C40.4308 135.791 39.8157 135.624 39.271 135.307C38.7263 134.989 38.2703 134.532 37.9474 133.978C37.6244 133.425 37.4455 132.795 37.4279 132.15C37.4103 131.504 37.5546 130.865 37.8469 130.294L70.0352 67.4027C70.4365 66.6186 70.6797 65.7587 70.7502 64.8749C70.8207 63.9911 70.717 63.1017 70.4453 62.2604C70.1736 61.4191 69.7396 60.6434 69.1695 59.98C68.5994 59.3166 67.905 58.7794 67.1282 58.4007L65.2281 57.4745C63.7526 56.7552 62.0658 56.649 60.5166 57.1778C58.9675 57.7066 57.6745 58.83 56.9053 60.3155L17.6474 136.128C16.9789 137.419 16.6292 138.86 16.6292 140.324C16.6292 141.493 16.8522 142.65 17.2855 143.73C17.7188 144.81 18.3539 145.791 19.1545 146.618C19.9552 147.444 20.9057 148.1 21.9517 148.547C22.9978 148.995 24.119 149.225 25.2513 149.225H71.469V169.95C71.469 170.984 71.6661 172.007 72.0492 172.961C72.4322 173.916 72.9936 174.783 73.7013 175.514C74.4091 176.245 75.2493 176.824 76.174 177.22C77.0988 177.615 78.0899 177.819 79.0908 177.819H79.0908C80.0917 177.819 81.0828 177.615 82.0075 177.22C82.9322 176.824 83.7725 176.245 84.4802 175.514C85.188 174.783 85.7494 173.916 86.1324 172.961C86.5154 172.007 86.7126 170.984 86.7126 169.95V149.225H97.4947C99.2203 149.225 100.875 148.517 102.095 147.257C103.316 145.998 104.001 144.289 104.001 142.508C104.001 140.727 103.316 139.018 102.095 137.759C100.875 136.499 99.2203 135.791 97.4947 135.791Z" fill="#7763FF"/>
<path d="M297.149 135.791H286.367V103.015C286.367 101.274 285.697 99.6045 284.504 98.3735C283.312 97.1425 281.695 96.4509 280.008 96.4509H277.482C276.647 96.4509 275.82 96.6207 275.048 96.9506C274.277 97.2805 273.576 97.764 272.986 98.3735C272.395 98.983 271.927 99.7067 271.607 100.503C271.288 101.299 271.123 102.153 271.123 103.015V135.791H240.711C240.085 135.791 239.47 135.624 238.925 135.307C238.38 134.989 237.924 134.532 237.602 133.978C237.279 133.425 237.1 132.795 237.082 132.15C237.064 131.504 237.209 130.865 237.501 130.294L269.689 67.4027C270.091 66.6186 270.334 65.7587 270.404 64.8749C270.475 63.9911 270.371 63.1017 270.099 62.2604C269.828 61.4191 269.394 60.6434 268.824 59.98C268.254 59.3166 267.559 58.7794 266.782 58.4007L264.882 57.4745C263.407 56.7552 261.72 56.649 260.171 57.1778C258.622 57.7066 257.329 58.83 256.559 60.3155L217.302 136.128C216.633 137.419 216.283 138.86 216.283 140.324C216.283 142.685 217.192 144.949 218.809 146.618C220.426 148.287 222.619 149.225 224.905 149.225H271.123V169.95C271.123 172.037 271.926 174.038 273.356 175.514C274.785 176.99 276.724 177.819 278.745 177.819C280.766 177.819 282.705 176.99 284.134 175.514C285.564 174.038 286.367 172.037 286.367 169.95V149.225H297.149C298.874 149.225 300.529 148.517 301.75 147.257C302.97 145.998 303.655 144.289 303.655 142.508C303.655 140.727 302.97 139.018 301.75 137.759C300.529 136.499 298.874 135.791 297.149 135.791Z" fill="#7763FF"/>
<path d="M100.469 131.953H89.687V99.1769C89.687 98.3149 89.5225 97.4613 89.2029 96.6649C88.8834 95.8686 88.415 95.1449 87.8246 94.5354C87.2341 93.9259 86.5332 93.4424 85.7617 93.1125C84.9902 92.7826 84.1634 92.6128 83.3284 92.6128H80.8019C79.1155 92.6128 77.4982 93.3044 76.3057 94.5354C75.1133 95.7664 74.4433 97.436 74.4433 99.1769V131.953H44.0308C43.4051 131.953 42.7901 131.786 42.2454 131.469C41.7006 131.151 41.2447 130.693 40.9217 130.14C40.5988 129.587 40.4198 128.957 40.4022 128.311C40.3846 127.666 40.529 127.027 40.8213 126.455L73.0096 63.5646C73.4109 62.7805 73.6541 61.9206 73.7246 61.0368C73.7951 60.153 73.6914 59.2636 73.4197 58.4223C73.148 57.581 72.714 56.8053 72.1439 56.1419C71.5738 55.4786 70.8794 54.9413 70.1026 54.5627L68.2024 53.6364C66.727 52.9171 65.0402 52.8109 63.491 53.3397C61.9418 53.8685 60.6489 54.9919 59.8797 56.4774L20.6218 132.29C19.9533 133.581 19.6035 135.022 19.6035 136.486V136.486C19.6035 138.847 20.5119 141.11 22.1289 142.78C23.7458 144.449 25.9389 145.387 28.2257 145.387H74.4433V166.112C74.4433 167.146 74.6405 168.169 75.0235 169.123C75.4065 170.078 75.968 170.945 76.6757 171.676C77.3835 172.407 78.2237 172.986 79.1484 173.382C80.0731 173.777 81.0642 173.98 82.0651 173.98H82.0651C84.0866 173.98 86.0252 173.151 87.4546 171.676C88.8839 170.2 89.6869 168.199 89.6869 166.112V145.387H100.469C101.323 145.387 102.17 145.213 102.959 144.875C103.748 144.538 104.466 144.043 105.07 143.419C105.674 142.796 106.153 142.055 106.48 141.24C106.807 140.425 106.975 139.552 106.975 138.67V138.67C106.975 137.788 106.807 136.915 106.48 136.1C106.153 135.285 105.674 134.544 105.07 133.921C104.466 133.297 103.748 132.802 102.959 132.465C102.17 132.127 101.323 131.953 100.469 131.953V131.953Z" stroke="#3F3D56" stroke-miterlimit="10"/>
<path d="M302.726 131.953H291.944V99.1769C291.944 97.436 291.274 95.7664 290.081 94.5354C288.889 93.3044 287.272 92.6128 285.585 92.6128H283.059C282.224 92.6128 281.397 92.7826 280.625 93.1125C279.854 93.4424 279.153 93.9259 278.562 94.5354C277.972 95.1449 277.504 95.8686 277.184 96.6649C276.865 97.4613 276.7 98.3149 276.7 99.1769V131.953H246.288C245.662 131.953 245.047 131.786 244.502 131.469C243.957 131.151 243.501 130.693 243.178 130.14C242.856 129.587 242.677 128.957 242.659 128.311C242.641 127.666 242.786 127.027 243.078 126.455L275.266 63.5646C275.668 62.7805 275.911 61.9206 275.981 61.0368C276.052 60.153 275.948 59.2636 275.676 58.4223C275.405 57.581 274.971 56.8053 274.401 56.1419C273.831 55.4786 273.136 54.9413 272.359 54.5627L270.459 53.6364C268.984 52.9171 267.297 52.8109 265.748 53.3397C264.199 53.8685 262.906 54.9919 262.136 56.4774L222.878 132.29C222.21 133.581 221.86 135.022 221.86 136.486C221.86 138.847 222.769 141.11 224.386 142.78C226.003 144.449 228.196 145.387 230.482 145.387H276.7V166.112C276.7 168.199 277.503 170.2 278.932 171.676C280.362 173.151 282.3 173.98 284.322 173.98V173.98C286.343 173.98 288.282 173.151 289.711 171.676C291.141 170.2 291.944 168.199 291.944 166.112V145.387H302.726C303.58 145.387 304.426 145.213 305.216 144.875C306.005 144.538 306.722 144.043 307.326 143.419C307.931 142.796 308.41 142.055 308.737 141.24C309.064 140.425 309.232 139.552 309.232 138.67V138.67C309.232 136.889 308.547 135.18 307.327 133.921C306.106 132.661 304.451 131.953 302.726 131.953V131.953Z" stroke="#3F3D56" stroke-miterlimit="10"/>
<path d="M163.86 48.8586C137.782 48.8586 119.059 66.13 119.059 106.43C119.059 152.103 137.782 164.193 163.86 164.193C189.938 164.193 209.777 150.952 209.777 106.43C209.777 58.8376 189.938 48.8586 163.86 48.8586ZM164.032 149.033C145.969 149.033 136.533 138.094 136.533 106.459C136.533 78.5468 146.356 63.8271 164.418 63.8271C182.48 63.8271 192.303 73.4959 192.303 106.459C192.303 137.296 182.094 149.033 164.032 149.033V149.033Z" stroke="#3F3D56" stroke-miterlimit="10"/>
<path d="M142.957 9.7577C145.119 9.7577 146.872 7.94845 146.872 5.71663C146.872 3.48481 145.119 1.67557 142.957 1.67557C140.795 1.67557 139.043 3.48481 139.043 5.71663C139.043 7.94845 140.795 9.7577 142.957 9.7577Z" fill="#2F2E41"/>
<path d="M152.505 29.3716C158.569 29.3716 163.485 22.7966 163.485 14.6858C163.485 6.57507 158.569 0 152.505 0C146.441 0 141.525 6.57507 141.525 14.6858C141.525 22.7966 146.441 29.3716 152.505 29.3716Z" fill="#2F2E41"/>
<path opacity="0.1" d="M152.505 24.9363C147.004 24.9363 142.449 19.5266 141.65 12.4682C141.566 13.2043 141.525 13.9447 141.525 14.6858C141.525 22.7966 146.441 29.3716 152.505 29.3716C158.569 29.3716 163.485 22.7966 163.485 14.6858C163.485 13.9447 163.443 13.2043 163.36 12.4682C162.561 19.5266 158.005 24.9363 152.505 24.9363Z" fill="black"/>
<path d="M174.848 57.6939C174.612 58.6942 173.595 59.4953 172.469 60.055C170.102 61.2317 167.182 61.5829 164.35 61.7008C163.627 61.7461 162.902 61.7323 162.182 61.6594C160.786 61.52 159.476 60.8985 158.465 59.8955C158.392 59.8469 158.333 59.7802 158.293 59.7017C158.252 59.6231 158.232 59.5353 158.233 59.4463C158.234 59.3573 158.258 59.2702 158.3 59.1929C158.343 59.1157 158.404 59.0509 158.478 59.0047C159.986 57.2948 162.502 56.2463 165.037 55.4914C166.959 54.919 170.311 53.4364 172.407 53.6364C174.438 53.8303 175.145 56.4309 174.848 57.6939Z" fill="#3F3D56"/>
<path opacity="0.1" d="M174.848 57.6939C174.612 58.6942 173.595 59.4953 172.469 60.055C170.102 61.2317 167.182 61.5829 164.35 61.7008C163.627 61.7461 162.902 61.7323 162.182 61.6594C160.786 61.52 159.476 60.8985 158.465 59.8955C158.392 59.8469 158.333 59.7802 158.293 59.7017C158.252 59.6231 158.232 59.5353 158.233 59.4463C158.234 59.3573 158.258 59.2702 158.3 59.1929C158.343 59.1157 158.404 59.0509 158.478 59.0047C159.986 57.2948 162.502 56.2463 165.037 55.4914C166.959 54.919 170.311 53.4364 172.407 53.6364C174.438 53.8303 175.145 56.4309 174.848 57.6939Z" fill="black"/>
<path d="M144.748 50.2178C144.026 51.6798 143.895 53.3782 144.384 54.9397C144.883 56.4895 145.815 57.8517 147.063 58.8541C150.126 61.3887 154.342 61.7375 158.267 61.7023C161.708 61.6714 165.143 61.4283 168.555 60.9744C169.699 60.8698 170.822 60.6005 171.893 60.1743C173.175 59.602 174.3 58.5525 174.757 57.1905C175.213 55.8285 174.889 54.1608 173.806 53.2518C172.854 52.4532 171.541 52.3433 170.317 52.2674L163.311 51.8328C164.004 51.1097 164.925 50.7008 165.768 50.1751C166.886 49.4777 167.629 48.3068 168.442 47.2512C169.695 45.7056 171.058 44.2589 172.52 42.9232C172.748 44.2734 173.575 45.3821 174.549 46.3137C175.523 47.2453 176.645 47.9952 177.657 48.8822C180.108 51.0305 181.874 53.9462 184.452 55.9301C186.225 55.449 187.883 54.5946 189.321 53.4204L188.319 51.5468C188.236 51.354 188.106 51.1865 187.942 51.0604C187.658 50.8803 187.292 50.9731 186.963 50.9222C186.083 50.7859 185.698 49.7369 185.353 48.8901C184.405 46.5654 182.589 44.7617 181.039 42.8122C179.895 41.3731 178.879 39.8295 178.006 38.2005C177.485 37.229 177.008 36.2174 176.301 35.3804C175.595 34.5434 174.604 33.8854 173.529 33.883C172.578 33.881 171.702 34.379 170.884 34.8801C168.396 36.4062 166.001 38.0903 163.714 39.9228C162.518 40.8818 161.329 41.895 159.925 42.4831C159.334 42.7307 158.711 42.8999 158.144 43.2011C157.151 43.7287 156.397 44.6214 155.586 45.4138C152.692 48.2402 148.729 50.0714 144.748 50.2178Z" fill="#3F3D56"/>
<path d="M159.396 30.101C159.364 30.9649 159.186 31.8164 158.87 32.6173C158.71 33.0167 158.472 33.3779 158.171 33.6782C157.87 33.9785 157.512 34.2116 157.12 34.3628C156.563 34.5169 155.979 34.5364 155.414 34.42C154.921 34.3668 154.446 34.1998 154.024 33.9311C153.367 33.4649 153.04 32.6331 152.92 31.8189C152.801 31.0058 152.854 30.1749 152.778 29.3559C152.703 28.6943 152.582 28.0394 152.413 27.3964C152.362 27.1826 152.309 26.9697 152.258 26.7568C152.207 26.5439 152.157 26.331 152.111 26.1181C152.069 25.918 152.03 25.7169 151.997 25.5149C151.969 25.3444 151.944 25.1729 151.926 25.0004C151.91 24.489 151.827 23.9823 151.681 23.4934C151.544 23.1763 151.372 22.8764 151.169 22.5994C151.082 22.4713 150.998 22.3431 150.921 22.2101C150.697 21.8643 150.593 21.4506 150.626 21.0362C150.635 20.9721 150.65 20.9091 150.671 20.8479C150.678 20.8243 150.687 20.8007 150.697 20.778C150.782 20.7539 150.861 20.7085 150.926 20.6458C150.991 20.5831 151.041 20.505 151.07 20.4182C151.103 20.2317 151.087 20.0396 151.025 19.8613C150.954 19.6122 150.856 19.3719 150.734 19.1448C150.654 18.995 150.381 18.7249 150.38 18.5534C150.376 18.2084 151.029 17.9305 151.293 17.7945C152.101 17.3771 153.001 17.1887 153.902 17.2484C154.479 17.2888 155.106 17.4722 155.425 17.9719C155.711 18.4223 155.673 19.0058 155.795 19.5292C155.808 19.6052 155.839 19.6767 155.886 19.7371C155.948 19.7957 156.026 19.8329 156.11 19.8436C156.252 19.8726 156.397 19.8786 156.54 19.8613H156.541C156.579 19.8582 156.616 19.8526 156.653 19.8446C156.876 19.8021 157.087 19.7081 157.27 19.5696C157.389 19.537 157.508 19.5104 157.628 19.4897C157.633 19.4892 157.638 19.4882 157.643 19.4868C158.121 21.045 158.183 22.7157 158.574 24.3025C158.768 25.092 159.046 25.8717 159.085 26.6838C159.088 26.7193 159.089 26.7558 159.09 26.7922C159.096 27.0534 159.076 27.3166 159.086 27.5768C159.09 27.694 159.103 27.8106 159.124 27.9257C159.167 28.1108 159.22 28.2931 159.284 28.4717L159.287 28.4806C159.305 28.5378 159.322 28.5959 159.336 28.6541C159.347 28.6965 159.356 28.7379 159.364 28.7802L159.365 28.7832C159.436 29.2187 159.446 29.6624 159.396 30.101Z" fill="#FBBEBE"/>
<path d="M152.696 19.9096C155.807 19.9096 158.329 17.3061 158.329 14.0944C158.329 10.8828 155.807 8.27925 152.696 8.27925C149.585 8.27925 147.063 10.8828 147.063 14.0944C147.063 17.3061 149.585 19.9096 152.696 19.9096Z" fill="#FBBEBE"/>
<path d="M188.46 45.7784C188.296 44.1918 187.75 42.6729 186.871 41.3608C187.017 42.2577 187.163 43.1543 187.31 44.0506C187.128 44.105 186.934 44.1034 186.753 44.0458C186.571 43.9882 186.41 43.8771 186.289 43.7263C186.051 43.4205 185.87 43.0729 185.753 42.7002C185.113 41.0602 184.276 39.5095 183.262 38.0846C179.676 37.7761 176.131 36.2414 172.977 34.4525C169.823 32.6646 166.87 30.5209 163.758 28.6571C163.218 28.3203 162.656 28.0239 162.076 27.77C161.102 27.3669 160.008 27.1579 159.085 26.6838C159.023 26.6523 158.961 26.6188 158.9 26.5843C158.691 26.4672 158.494 26.3302 158.31 26.1752C158.21 26.0919 158.116 26.0024 158.027 25.9071C157.567 25.3539 157.201 24.7232 156.947 24.0423C156.452 22.9109 156.275 21.5458 155.781 20.4143C156.008 20.195 156.263 20.0089 156.54 19.8613H156.541C156.581 19.8396 156.621 19.8189 156.662 19.7992C156.858 19.7041 157.061 19.6272 157.27 19.5696C157.389 19.5371 157.508 19.5104 157.628 19.4897C157.633 19.4892 157.638 19.4882 157.643 19.4868C158.2 19.393 158.772 19.4396 159.309 19.6228C160.093 19.8968 160.755 20.4438 161.415 20.9613C162.487 21.7408 163.515 22.5826 164.494 23.4825C165.038 24.0206 165.535 24.612 166.12 25.1009C166.606 25.4884 167.119 25.8392 167.654 26.1506C170.821 28.0982 173.989 30.0455 177.156 31.9924C178.228 32.6518 179.302 33.3112 180.35 34.009C181.942 35.0695 183.478 36.2188 185.012 37.367C185.916 38.0431 186.82 38.7196 187.724 39.3964C188.02 39.5916 188.28 39.84 188.492 40.1297C188.679 40.4587 188.796 40.8255 188.833 41.205C189.06 42.7385 188.932 44.3057 188.46 45.7784Z" fill="#FBBEBE"/>
<path d="M160.793 34.4742C160.413 36.2336 158.691 37.2971 157.79 38.8425C156.671 40.7605 157.128 42.99 157.548 45.187C156.78 45.87 156.012 46.5531 155.244 47.2361C154.82 47.6116 154.396 47.9891 153.94 48.3213C153.274 48.7816 152.579 49.1939 151.858 49.5553C151.179 49.916 150.499 50.2771 149.819 50.6385C149.187 51.0053 148.518 51.2982 147.823 51.5117C146.483 51.8666 145.06 51.6182 143.735 51.2072C143.579 51.1649 143.429 51.1016 143.288 51.0189C143.206 50.968 143.134 50.9007 143.076 50.8208C142.946 50.579 142.898 50.2986 142.942 50.0254C143.076 47.723 143.622 45.4689 144.165 43.2315C144.455 41.8892 144.846 40.5721 145.333 39.2919C145.81 38.195 146.359 37.1327 146.976 36.1123C147.656 34.8285 148.463 33.62 149.382 32.5059C149.829 32.0771 150.206 31.5757 150.497 31.0216C150.836 30.2232 150.705 29.3076 150.774 28.4382C150.826 27.7851 150.994 27.1474 151.269 26.5567V26.5557C151.416 26.2375 151.594 25.9351 151.798 25.6529C151.891 25.8756 151.984 26.098 152.076 26.3201C152.137 26.466 152.198 26.6116 152.258 26.7568C152.336 26.9441 152.414 27.1307 152.491 27.3166C152.713 27.8508 152.935 28.3847 153.157 28.9183C153.397 29.5903 153.738 30.2187 154.169 30.7801C154.366 31.0676 154.632 31.2974 154.94 31.4472C155.249 31.597 155.59 31.6615 155.93 31.6346C156.27 31.6077 156.597 31.4902 156.88 31.2936C157.163 31.097 157.392 30.8281 157.544 30.513C157.865 29.9248 158.098 29.2897 158.233 28.6295C158.422 27.8255 158.448 26.9901 158.31 26.1753C158.08 24.6061 157.433 23.0035 156.964 21.5458C156.772 21.0597 156.662 20.544 156.636 20.02C156.637 19.9612 156.643 19.9025 156.653 19.8446C156.656 19.8298 156.659 19.814 156.662 19.7993C156.858 19.7041 157.061 19.6273 157.27 19.5696C157.389 19.5371 157.508 19.5105 157.628 19.4898C158.042 21.8001 158.456 24.1104 158.87 26.4207C158.88 26.4749 158.89 26.5291 158.9 26.5843C158.959 26.9155 159.019 27.2466 159.086 27.5768C159.146 27.8764 159.211 28.1751 159.284 28.4718L159.287 28.4806C159.311 28.5812 159.337 28.6807 159.364 28.7803L159.365 28.7832C159.438 29.0553 159.521 29.3253 159.613 29.5914C160.175 31.195 161.153 32.8095 160.793 34.4742Z" fill="#7763FF"/>
<path d="M183.655 59.1986C183.637 59.5375 183.701 59.8757 183.84 60.1831C184.192 60.8483 185.038 60.9995 185.77 61.0617C190.046 61.4245 194.348 61.2892 198.595 60.6583C198.825 60.6421 199.049 60.5705 199.248 60.4492C199.851 60.0122 199.479 58.9472 198.82 58.6063C198.161 58.2654 197.378 58.3475 196.655 58.1999C195.936 58.0131 195.252 57.7067 194.629 57.2927C193.162 56.4226 191.716 55.5155 190.292 54.5713C189.444 54.0092 188.443 53.4093 187.488 53.7426C184.901 54.6459 183.638 56.3179 183.655 59.1986Z" fill="#3F3D56"/>
<path d="M152.134 25.9949V25.9959C152.127 26.0373 152.12 26.0777 152.112 26.1181C152.101 26.1851 152.089 26.2531 152.076 26.3201C151.958 26.946 151.813 27.5689 151.646 28.1879C151.187 29.8979 150.573 31.5804 149.964 33.2382C148.33 37.6834 146.695 42.1289 145.06 46.5747C144.647 47.6944 144.236 48.8151 143.767 49.9121C143.61 50.2777 143.449 50.6463 143.288 51.0189C142.714 52.3525 142.162 53.7294 141.979 55.1487C141.808 56.0828 141.788 57.0396 141.92 57.9804C142.104 58.9108 142.651 59.8196 143.507 60.1635C143.925 60.3321 144.524 60.5578 144.409 61.0063C144.347 61.2527 144.076 61.3729 143.833 61.4143C143.511 61.4672 143.182 61.4464 142.87 61.3534C142.557 61.2604 142.267 61.0975 142.022 60.8762C141.565 60.4573 141.214 59.8058 140.606 59.7358C140.185 59.6885 139.797 59.9487 139.411 60.131C137.838 60.8732 136.005 60.3538 134.352 59.8265C134.482 59.1355 135.154 58.6802 135.821 58.5422C136.489 58.4032 137.179 58.5018 137.86 58.4831C138.078 58.4951 138.294 58.4376 138.479 58.3185C138.645 58.161 138.762 57.9557 138.813 57.7291C139.252 56.3877 139.578 55.01 139.788 53.6111C140.008 52.1494 140.1 50.6651 140.413 49.2211C140.656 48.0946 141.032 47.0035 141.355 45.8976C141.979 43.6207 142.492 41.3127 142.89 38.9825C143.092 38.0143 143.236 37.0345 143.323 36.0483C143.377 35.2302 143.351 34.4082 143.428 33.5931C143.556 32.5326 143.77 31.4851 144.069 30.4617C144.361 29.345 144.653 28.229 144.944 27.1136C145.377 25.4626 145.841 23.7477 146.937 22.4644C147.317 22.0126 147.784 21.6463 148.307 21.3883C148.831 21.1303 149.4 20.9859 149.98 20.9643C150.197 20.964 150.414 20.9881 150.626 21.0362C150.661 21.0451 150.697 21.0539 150.732 21.0638C150.963 21.1262 151.185 21.2211 151.392 21.3457C151.73 21.1239 151.901 21.2018 152.126 21.5438C152.323 21.9058 152.415 22.3181 152.393 22.7325C152.412 23.8262 152.325 24.9191 152.134 25.9949Z" fill="#FBBEBE"/>
<path d="M152.505 27.3018L152.491 27.3166L152.413 27.3964L151.646 28.1879L151.269 26.5567L149.979 20.9642C150.197 20.964 150.414 20.9881 150.626 21.0362C150.635 20.9721 150.65 20.9091 150.671 20.8479L150.732 21.0638L151.169 22.5994L151.997 25.5149L152.133 25.9949V25.9959L152.505 27.3018Z" fill="#7763FF"/>
<path d="M157.376 9.4605C157.375 9.97833 157.276 10.491 157.083 10.9691C156.891 11.4472 156.609 11.8814 156.253 12.247C156.125 12.38 155.987 12.5032 155.841 12.6154C155.182 13.1282 154.379 13.4057 153.554 13.4061H148.974C147.961 13.4045 146.991 12.9883 146.276 12.2489C145.561 11.5095 145.159 10.5073 145.159 9.46242C145.159 8.41755 145.561 7.41539 146.276 6.67599C146.991 5.93658 147.961 5.52038 148.974 5.51877H153.554C154.566 5.52149 155.536 5.93753 156.252 6.67605C156.969 7.41457 157.372 8.41557 157.376 9.4605Z" fill="#2F2E41"/>
<path d="M161.671 9.7577C163.833 9.7577 165.585 7.94845 165.585 5.71663C165.585 3.48481 163.833 1.67557 161.671 1.67557C159.509 1.67557 157.756 3.48481 157.756 5.71663C157.756 7.94845 159.509 9.7577 161.671 9.7577Z" fill="#2F2E41"/>
<path opacity="0.1" d="M161.575 1.67557C161.527 1.67557 161.48 1.67754 161.432 1.67931C162.445 1.71731 163.404 2.15931 164.107 2.9123C164.81 3.66529 165.203 4.67058 165.203 5.71663C165.203 6.76269 164.81 7.76797 164.107 8.52097C163.404 9.27396 162.445 9.71595 161.432 9.75396C161.48 9.75573 161.527 9.7577 161.575 9.7577C162.613 9.7577 163.609 9.33194 164.343 8.5741C165.077 7.81625 165.49 6.78839 165.49 5.71663C165.49 4.64488 165.077 3.61702 164.343 2.85917C163.609 2.10132 162.613 1.67557 161.575 1.67557Z" fill="black"/>
<path opacity="0.1" d="M142.957 1.67557C143.005 1.67557 143.053 1.67754 143.1 1.67931C142.088 1.71731 141.129 2.15931 140.425 2.9123C139.722 3.66529 139.329 4.67058 139.329 5.71663C139.329 6.76269 139.722 7.76797 140.425 8.52097C141.129 9.27396 142.088 9.71595 143.1 9.75396C143.053 9.75573 143.005 9.7577 142.957 9.7577C141.92 9.75675 140.925 9.33058 140.191 8.57284C139.458 7.81509 139.046 6.78778 139.046 5.71663C139.046 4.64549 139.458 3.61817 140.191 2.86043C140.925 2.10268 141.92 1.67651 142.957 1.67557Z" fill="black"/>
<path opacity="0.1" d="M155.841 12.6154C155.182 13.1281 154.379 13.4057 153.554 13.4061H148.973C148.148 13.4057 147.346 13.1281 146.687 12.6154H155.841Z" fill="black"/>
<path d="M185.42 41.8967C185.42 41.8967 186.407 44.8322 187.31 44.0506L186.59 40.2135L185.42 41.8967Z" fill="#FBBEBE"/>
<path d="M305.51 131.416C306.429 131.761 307.413 131.881 308.385 131.767C309.357 131.652 310.29 131.306 311.11 130.756C311.93 130.205 312.615 129.466 313.11 128.596C313.606 127.726 313.9 126.748 313.968 125.741C314.035 124.734 313.876 123.724 313.501 122.792C313.126 121.859 312.547 121.029 311.808 120.367C311.07 119.705 310.192 119.229 309.245 118.977C308.298 118.725 307.308 118.703 306.351 118.914L306.509 122.269L304.971 119.394C303.462 120.126 302.296 121.446 301.73 123.065C301.528 123.633 301.406 124.226 301.366 124.829C301.269 126.243 301.621 127.651 302.369 128.839C303.117 130.028 304.22 130.933 305.51 131.416Z" fill="#57B894"/>
<path d="M313.119 170.334C312.576 167.48 314.929 164.95 317.252 163.306C319.576 161.661 322.291 160.046 323.083 157.255C324.223 153.244 320.829 149.572 318.187 146.404C316.228 144.054 314.545 141.472 313.174 138.712C312.624 137.605 312.119 136.449 311.974 135.214C311.766 133.437 312.319 131.668 312.877 129.972C314.734 124.323 316.719 118.721 318.833 113.167" stroke="#3F3D56" stroke-miterlimit="10"/>
<path d="M305.77 130.553C306.689 130.898 307.674 131.017 308.645 130.903C309.617 130.788 310.549 130.442 311.369 129.892C312.189 129.341 312.874 128.602 313.37 127.732C313.866 126.862 314.16 125.885 314.228 124.877C314.295 123.87 314.136 122.86 313.761 121.928C313.386 120.995 312.807 120.165 312.068 119.503C311.33 118.841 310.452 118.366 309.505 118.113C308.558 117.861 307.568 117.839 306.611 118.05L306.769 121.405L305.231 118.53C303.722 119.262 302.556 120.582 301.99 122.202C301.788 122.769 301.666 123.362 301.626 123.965C301.529 125.379 301.881 126.787 302.629 127.976C303.377 129.164 304.48 130.069 305.77 130.553V130.553Z" stroke="#3F3D56" stroke-miterlimit="10"/>
<path d="M312.347 112.008C312.708 110.981 313.314 110.063 314.108 109.341C314.902 108.619 315.86 108.114 316.893 107.874L317.413 111.064L318.377 107.714C319.715 107.734 321.013 108.193 322.082 109.025C323.151 109.856 323.937 111.017 324.325 112.339C324.714 113.661 324.686 115.077 324.244 116.382C323.802 117.686 322.971 118.812 321.869 119.597C320.767 120.382 319.452 120.785 318.114 120.748C316.776 120.711 315.484 120.236 314.424 119.391C313.365 118.547 312.593 117.376 312.219 116.049C311.846 114.722 311.891 113.307 312.347 112.008H312.347Z" fill="#57B894"/>
<path d="M312.694 110.856C313.055 109.829 313.66 108.912 314.455 108.189C315.249 107.467 316.207 106.962 317.24 106.722L317.76 109.912L318.724 106.562C320.062 106.583 321.359 107.042 322.429 107.873C323.498 108.704 324.284 109.865 324.672 111.187C325.061 112.51 325.032 113.925 324.591 115.23C324.149 116.534 323.318 117.66 322.216 118.445C321.114 119.23 319.799 119.633 318.461 119.596C317.123 119.559 315.831 119.084 314.771 118.239C313.712 117.395 312.939 116.225 312.566 114.898C312.193 113.57 312.238 112.155 312.694 110.856H312.694Z" stroke="#3F3D56" stroke-miterlimit="10"/>
<path d="M317.079 146.469C318.537 147.015 320.138 146.988 321.578 146.393C323.017 145.798 324.195 144.678 324.885 143.245C325.576 141.811 325.732 140.166 325.323 138.622C324.914 137.078 323.969 135.743 322.668 134.872L321.927 137.447L321.402 134.219C321.397 134.217 321.391 134.214 321.386 134.213C320.606 133.92 319.778 133.789 318.949 133.827C318.121 133.865 317.307 134.071 316.556 134.434C315.804 134.796 315.129 135.308 314.569 135.94C314.009 136.572 313.575 137.311 313.293 138.116C313.01 138.922 312.883 139.776 312.92 140.632C312.958 141.487 313.158 142.327 313.509 143.102C313.861 143.878 314.357 144.575 314.97 145.152C315.582 145.73 316.299 146.177 317.079 146.469H317.079Z" fill="#57B894"/>
<path d="M317.379 145.302C318.837 145.848 320.438 145.821 321.878 145.226C323.318 144.632 324.495 143.511 325.186 142.078C325.876 140.645 326.032 138.999 325.623 137.455C325.214 135.911 324.269 134.576 322.968 133.705L322.227 136.28L321.702 133.052C321.697 133.05 321.692 133.048 321.686 133.046C320.906 132.754 320.079 132.623 319.25 132.66C318.421 132.698 317.608 132.904 316.856 133.267C316.104 133.629 315.429 134.141 314.87 134.773C314.31 135.405 313.876 136.145 313.593 136.95C313.31 137.755 313.184 138.61 313.221 139.465C313.258 140.321 313.458 141.16 313.81 141.936C314.161 142.711 314.658 143.408 315.27 143.986C315.883 144.563 316.599 145.011 317.379 145.302H317.379Z" stroke="#3F3D56" stroke-miterlimit="10"/>
<path d="M310.504 157.295C310.755 158.767 311.489 160.106 312.582 161.086C313.675 162.066 315.061 162.629 316.508 162.679C317.956 162.729 319.376 162.264 320.53 161.362C321.685 160.46 322.504 159.176 322.85 157.724C323.196 156.273 323.048 154.742 322.431 153.39C321.813 152.038 320.765 150.946 319.46 150.297C318.156 149.648 316.675 149.482 315.266 149.827C313.857 150.172 312.605 151.006 311.721 152.19L314.535 156.562L310.691 154.241C310.392 155.229 310.329 156.276 310.504 157.295Z" fill="#57B894"/>
<path d="M310.765 156.431C311.015 157.903 311.749 159.242 312.842 160.222C313.935 161.202 315.321 161.765 316.769 161.815C318.216 161.866 319.636 161.401 320.79 160.498C321.945 159.596 322.764 158.312 323.11 156.86C323.456 155.409 323.308 153.879 322.691 152.526C322.074 151.174 321.025 150.082 319.72 149.433C318.416 148.784 316.935 148.618 315.526 148.963C314.117 149.308 312.865 150.142 311.982 151.326L314.795 155.698L310.951 153.377C310.653 154.365 310.589 155.412 310.765 156.431V156.431Z" stroke="#3F3D56" stroke-miterlimit="10"/>
<path d="M2.73313 147.297C3.33704 147.524 3.98369 147.602 4.62211 147.527C5.26053 147.452 5.87327 147.224 6.41203 146.863C6.95079 146.501 7.40085 146.016 7.72673 145.444C8.05261 144.872 8.2454 144.23 8.28992 143.568C8.33443 142.907 8.22944 142.243 7.98323 141.63C7.73702 141.018 7.35632 140.472 6.87113 140.038C6.38594 139.603 5.80952 139.29 5.18732 139.124C4.56512 138.959 3.91413 138.944 3.28567 139.083L3.38953 141.287L2.37915 139.398C1.38753 139.879 0.621457 140.747 0.249286 141.81C0.117112 142.183 0.0367603 142.573 0.0106276 142.969C-0.0531477 143.898 0.178127 144.823 0.669405 145.604C1.16068 146.385 1.88519 146.979 2.73313 147.297Z" fill="#57B894"/>
<path d="M7.73244 172.866C7.37578 170.991 8.92127 169.329 10.4479 168.249C11.9744 167.168 13.7582 166.107 14.2791 164.273C15.0276 161.638 12.7978 159.225 11.0623 157.144C9.7747 155.6 8.66896 153.903 7.7682 152.09C7.3766 151.378 7.10987 150.6 6.9803 149.792C6.84345 148.624 7.20696 147.462 7.57317 146.348C8.79314 142.636 10.0975 138.956 11.4862 135.307" stroke="#3F3D56" stroke-miterlimit="10"/>
<path d="M2.90397 146.729C3.50788 146.956 4.15453 147.035 4.79295 146.96C5.43137 146.884 6.04411 146.657 6.58287 146.295C7.12163 145.934 7.57168 145.448 7.89756 144.876C8.22344 144.305 8.41623 143.662 8.46074 143.001C8.50526 142.339 8.40027 141.676 8.15406 141.063C7.90785 140.45 7.52715 139.905 7.04196 139.47C6.55677 139.035 5.98036 138.722 5.35816 138.557C4.73596 138.391 4.08497 138.377 3.45651 138.515L3.56037 140.72L2.54999 138.83C1.55837 139.311 0.792294 140.179 0.420123 141.243C0.287951 141.615 0.2076 142.005 0.181466 142.401C0.117687 143.33 0.34896 144.255 0.840239 145.036C1.33152 145.817 2.05602 146.412 2.90397 146.729V146.729Z" stroke="#3F3D56" stroke-miterlimit="10"/>
<path d="M7.22536 134.545C7.46236 133.87 7.86013 133.268 8.38202 132.793C8.90391 132.318 9.53314 131.987 10.2117 131.829L10.5533 133.925L11.1867 131.724C12.0661 131.737 12.9186 132.039 13.6211 132.585C14.3236 133.132 14.8398 133.894 15.0951 134.763C15.3504 135.632 15.3317 136.562 15.0416 137.419C14.7515 138.276 14.2051 139.016 13.4811 139.531C12.7572 140.047 11.8933 140.312 11.0142 140.287C10.135 140.263 9.28605 139.951 8.5899 139.396C7.89375 138.841 7.38642 138.072 7.14115 137.201C6.89588 136.329 6.92537 135.399 7.22536 134.545Z" fill="#57B894"/>
<path d="M7.45314 133.789C7.69014 133.114 8.08791 132.511 8.60981 132.036C9.1317 131.562 9.76092 131.23 10.4395 131.073L10.7811 133.168L11.4145 130.967C12.2939 130.981 13.1464 131.282 13.8489 131.829C14.5514 132.375 15.0676 133.137 15.3229 134.006C15.5782 134.875 15.5595 135.805 15.2694 136.662C14.9793 137.519 14.4328 138.259 13.7089 138.775C12.985 139.29 12.1211 139.555 11.2419 139.531C10.3628 139.506 9.51384 139.194 8.81769 138.639C8.12154 138.085 7.6142 137.316 7.36893 136.444C7.12367 135.572 7.15315 134.642 7.45314 133.789V133.789Z" stroke="#3F3D56" stroke-miterlimit="10"/>
<path d="M10.334 157.187C11.2917 157.545 12.3438 157.528 13.2897 157.137C14.2356 156.746 15.0092 156.01 15.463 155.068C15.9168 154.127 16.0191 153.046 15.7504 152.031C15.4817 151.017 14.8607 150.14 14.006 149.567L13.5193 151.259L13.1742 149.138C13.1708 149.137 13.1672 149.135 13.1636 149.134C12.6513 148.942 12.1074 148.856 11.5628 148.881C11.0182 148.905 10.4837 149.041 9.98983 149.279C9.49596 149.517 9.05238 149.853 8.68447 150.269C8.31655 150.684 8.0315 151.17 7.84561 151.699C7.65972 152.228 7.57664 152.789 7.6011 153.352C7.62557 153.914 7.75711 154.465 7.9882 154.975C8.21929 155.485 8.5454 155.942 8.94791 156.322C9.35041 156.701 9.82141 156.995 10.334 157.187Z" fill="#57B894"/>
<path d="M10.5314 156.42C11.4891 156.779 12.5412 156.761 13.4871 156.37C14.433 155.98 15.2066 155.243 15.6604 154.302C16.1142 153.36 16.2165 152.279 15.9478 151.265C15.6791 150.25 15.0582 149.373 14.2034 148.801L13.7167 150.492L13.3716 148.372C13.3682 148.37 13.3647 148.369 13.361 148.368C12.8489 148.176 12.3051 148.09 11.7608 148.115C11.2165 148.14 10.6824 148.276 10.1888 148.514C9.19206 148.995 8.42129 149.866 8.04606 150.933C7.67082 152.001 7.72186 153.179 8.18796 154.208C8.65405 155.237 9.49701 156.033 10.5314 156.42V156.42Z" stroke="#3F3D56" stroke-miterlimit="10"/>
<path d="M6.01454 164.3C6.17922 165.267 6.66107 166.146 7.3793 166.79C8.09753 167.435 9.00844 167.804 9.95928 167.837C10.9101 167.87 11.8431 167.565 12.6016 166.972C13.3602 166.379 13.8983 165.535 14.1256 164.582C14.3529 163.628 14.2557 162.623 13.8502 161.734C13.4448 160.846 12.7557 160.128 11.8986 159.702C11.0415 159.276 10.0684 159.167 9.14269 159.393C8.21695 159.62 7.39478 160.168 6.81408 160.946L8.66265 163.818L6.1368 162.293C5.94096 162.942 5.89903 163.63 6.01454 164.3Z" fill="#57B894"/>
<path d="M6.18538 163.732C6.35006 164.699 6.83191 165.579 7.55014 166.223C8.26836 166.867 9.17928 167.237 10.1301 167.27C11.081 167.303 12.0139 166.997 12.7725 166.404C13.531 165.812 14.0691 164.968 14.2964 164.014C14.5238 163.06 14.4266 162.055 14.0211 161.167C13.6156 160.278 12.9265 159.561 12.0694 159.134C11.2123 158.708 10.2393 158.599 9.31353 158.826C8.38779 159.052 7.56562 159.6 6.98491 160.378L8.83349 163.25L6.30764 161.726C6.1118 162.375 6.06987 163.063 6.18538 163.732V163.732Z" stroke="#3F3D56" stroke-miterlimit="10"/>
<path d="M145.932 106.848C148.781 106.848 151.09 103.763 151.09 99.9573C151.09 96.1514 148.781 93.0662 145.932 93.0662C143.083 93.0662 140.774 96.1514 140.774 99.9573C140.774 103.763 143.083 106.848 145.932 106.848Z" fill="#2F2E41"/>
<path d="M173.999 107.005C176.848 107.005 179.157 103.92 179.157 100.114C179.157 96.308 176.848 93.2228 173.999 93.2228C171.15 93.2228 168.841 96.308 168.841 100.114C168.841 103.92 171.15 107.005 173.999 107.005Z" fill="#2F2E41"/>
<path d="M170.055 120.474C170.055 123.588 165.843 126.112 160.648 126.112C155.454 126.112 151.242 123.588 151.242 120.474C151.242 117.777 154.401 115.522 158.622 114.971C159.294 114.879 159.971 114.834 160.648 114.836C161.784 114.832 162.917 114.958 164.026 115.212C167.551 116.023 170.055 118.075 170.055 120.474Z" fill="#2F2E41"/>
<path d="M147.146 105.282C149.995 105.282 152.304 102.197 152.304 98.3911C152.304 94.5853 149.995 91.5 147.146 91.5C144.297 91.5 141.988 94.5853 141.988 98.3911C141.988 102.197 144.297 105.282 147.146 105.282Z" stroke="#3F3D56" stroke-miterlimit="10"/>
<path d="M175.213 105.439C178.062 105.439 180.371 102.354 180.371 98.5477C180.371 94.7419 178.062 91.6566 175.213 91.6566C172.364 91.6566 170.055 94.7419 170.055 98.5477C170.055 102.354 172.364 105.439 175.213 105.439Z" stroke="#3F3D56" stroke-miterlimit="10"/>
<path d="M161.862 124.546C167.057 124.546 171.268 122.022 171.268 118.908C171.268 115.794 167.057 113.27 161.862 113.27C156.667 113.27 152.456 115.794 152.456 118.908C152.456 122.022 156.667 124.546 161.862 124.546Z" stroke="#3F3D56" stroke-miterlimit="10"/>
<path d="M164.138 115.682C164.14 116.075 163.997 116.455 163.737 116.744C163.615 116.882 163.466 116.993 163.3 117.069C163.133 117.145 162.954 117.184 162.772 117.185H159.738C159.364 117.172 159.011 117.006 158.755 116.724C158.499 116.442 158.362 116.068 158.373 115.682C158.371 115.376 158.458 115.077 158.622 114.823C159.293 114.725 159.97 114.677 160.648 114.679C161.785 114.675 162.919 114.81 164.026 115.08C164.1 115.271 164.139 115.475 164.138 115.682Z" fill="white"/>
<path d="M147.146 98.0779C147.984 98.0779 148.663 97.3767 148.663 96.5117C148.663 95.6467 147.984 94.9455 147.146 94.9455C146.308 94.9455 145.629 95.6467 145.629 96.5117C145.629 97.3767 146.308 98.0779 147.146 98.0779Z" fill="white"/>
<path d="M175.365 98.0779C176.203 98.0779 176.882 97.3767 176.882 96.5117C176.882 95.6467 176.203 94.9455 175.365 94.9455C174.527 94.9455 173.848 95.6467 173.848 96.5117C173.848 97.3767 174.527 98.0779 175.365 98.0779Z" fill="white"/>
<path opacity="0.3" d="M176.882 112.8C177.72 112.8 178.399 112.099 178.399 111.234C178.399 110.369 177.72 109.667 176.882 109.667C176.044 109.667 175.365 110.369 175.365 111.234C175.365 112.099 176.044 112.8 176.882 112.8Z" fill="#7763FF"/>
<path opacity="0.3" d="M139.864 112.8C140.702 112.8 141.381 112.099 141.381 111.234C141.381 110.369 140.702 109.667 139.864 109.667C139.026 109.667 138.346 110.369 138.346 111.234C138.346 112.099 139.026 112.8 139.864 112.8Z" fill="#7763FF"/>
</g>
<defs>
<clipPath id="clip0_7_185">
<rect width="326" height="183" fill="white"/>
</clipPath>
</defs>
</svg>
